<?xml version="1.0" encoding="utf-8"?>
<!-- Generator: Adobe Illustrator 16.0.0, SVG Export Plug-In . SVG Version: 6.00 Build 0)  -->
<!DOCTYPE svg PUBLIC "-//W3C//DTD SVG 1.1//EN" "http://www.w3.org/Graphics/SVG/1.1/DTD/svg11.dtd">
<svg version="1.1" xmlns="http://www.w3.org/2000/svg" xmlns:xlink="http://www.w3.org/1999/xlink" x="0px" y="0px"
	 width="21.186px" height="21.186px" viewBox="0 0 21.186 21.186" enable-background="new 0 0 21.186 21.186" xml:space="preserve">
<g id="Layer_5" display="none">
	<rect x="12.856" y="0.142" display="inline" width="8.188" height="13.875"/>
</g>
<g id="Black_1_" opacity="0.6" enable-background="new    ">
	<g id="Black">
		<g>
			<circle cx="10.593" cy="10.593" r="10.027"/>
		</g>
	</g>
</g>
<g id="Circle_1_" enable-background="new    ">
	<g id="Circle">
		<g>
			<path fill-rule="evenodd" clip-rule="evenodd" fill="#FFFFFF" d="M10.593,0.142c-5.772,0-10.451,4.679-10.451,10.451
				c0,5.772,4.679,10.451,10.451,10.451c5.772,0,10.451-4.679,10.451-10.451C21.044,4.821,16.365,0.142,10.593,0.142z
				 M10.593,19.844c-5.109,0-9.251-4.142-9.251-9.251s4.142-9.251,9.251-9.251s9.251,4.142,9.251,9.251S15.702,19.844,10.593,19.844
				z"/>
		</g>
	</g>
</g>
<g id="Arrow_1_" enable-background="new    ">
	<g id="Arrow">
		<g>
			
				<rect x="4.378" y="9.18" transform="matrix(0.7071 -0.7071 0.7071 0.7071 -4.5503 8.7881)" fill="#FFFFFF" width="7.909" height="1.413"/>
		</g>
	</g>
</g>
<g id="Arrow_copy_1_" enable-background="new    ">
	<g id="Arrow_copy">
		<g>
			
				<rect x="12.288" y="5.932" transform="matrix(0.7069 -0.7073 0.7073 0.7069 -3.1846 12.0878)" fill="#FFFFFF" width="1.412" height="7.909"/>
		</g>
	</g>
</g>
</svg>
